<?xml version="1.0" encoding="iso-8859-1"?>
<!-- Generator: Adobe Illustrator 19.0.0, SVG Export Plug-In . SVG Version: 6.00 Build 0)  -->
<svg version="1.1" id="Layer_1" xmlns="http://www.w3.org/2000/svg" xmlns:xlink="http://www.w3.org/1999/xlink" x="0px" y="0px"
	 viewBox="0 0 512 512" style="enable-background:new 0 0 512 512;" xml:space="preserve">
<circle style="fill:#FFD55C;" cx="256" cy="256" r="256"/>
<rect x="232.01" y="308.19" style="fill:#E6E5E5;" width="47.976" height="23.463"/>
<path style="fill:#FF6D3B;" d="M256,512c0.001,0,0.002,0,0.003,0V387.581h-23.988v123.292C239.913,511.607,247.91,512,256,512z"/>
<path style="fill:#F15424;" d="M256.003,387.581V512c8.092,0,16.091-0.394,23.991-1.128V387.581h-0.003H256.003z"/>
<g>
	<path style="fill:#FFFFFF;" d="M258.689,211.521c3.993,1.164,6.914,4.845,6.914,9.214c0,5.303-4.299,9.602-9.602,9.602
		s-9.602-4.299-9.602-9.602c0-4.367,2.917-8.046,6.907-9.212v-85.62l-64.413,139.155h0.026c23.767,0.013,43.031,19.258,43.1,43.015
		v0.119h47.976v-0.119c0.069-23.757,19.33-43.005,43.087-43.015h0.046l-64.439-139.185L258.689,211.521L258.689,211.521z"/>
	<polygon style="fill:#FFFFFF;" points="256.003,120.072 256,120.079 256.006,120.079 	"/>
</g>
<path style="fill:#242D3C;" d="M246.398,220.735c0,5.303,4.299,9.602,9.602,9.602s9.602-4.299,9.602-9.602
	c0-4.369-2.92-8.05-6.914-9.214v-85.648v-5.794h-2.682H256h-2.696v5.824v85.62C249.315,212.689,246.398,216.368,246.398,220.735z"/>
<path style="fill:#3E4959;" d="M279.991,387.581h0.003h4.909c0.562,0,1.136-0.211,1.562-0.631c0.423-0.453,0.644-1.017,0.644-1.582
	h-1.85v-51.491h1.85c0-0.565-0.221-1.136-0.644-1.569c-0.426-0.433-1.001-0.651-1.562-0.651h-4.912h-47.976h-4.922
	c-0.558,0-1.133,0.218-1.559,0.651c-0.436,0.433-0.644,1.004-0.644,1.569h1.86v51.491h-1.86c0,0.565,0.205,1.13,0.644,1.582
	c0.426,0.419,1.001,0.631,1.559,0.631h4.922h23.988H279.991z M259.098,385.367v-51.491h2.52v51.491H259.098z M263.455,385.367
	v-51.491h2.53v51.491H263.455z M267.806,385.367v-51.491h2.53v51.491H267.806z M272.166,385.367v-51.491h2.534v51.491H272.166z
	 M276.536,385.367v-51.491h2.517v51.491H276.536z M283.427,333.877v51.491h-2.53v-51.491H283.427z M228.583,385.367v-51.491h2.524
	v51.491H228.583z M232.93,385.367v-51.491h2.534v51.491H232.93z M237.297,385.367v-51.491h2.53v51.491H237.297z M241.661,385.367
	v-51.491h2.52v51.491H241.661z M246.024,385.367v-51.491h2.52v51.491H246.024z M250.375,385.367v-51.491h2.534v51.491H250.375z
	 M254.735,333.877h2.53v51.491h-2.53L254.735,333.877L254.735,333.877z"/>
<g>
	<rect x="250.37" y="333.88" style="fill:#242D3C;" width="2.534" height="51.49"/>
	<rect x="276.54" y="333.88" style="fill:#242D3C;" width="2.517" height="51.49"/>
	<rect x="267.81" y="333.88" style="fill:#242D3C;" width="2.53" height="51.49"/>
	<rect x="272.17" y="333.88" style="fill:#242D3C;" width="2.534" height="51.49"/>
	<rect x="263.45" y="333.88" style="fill:#242D3C;" width="2.53" height="51.49"/>
	<rect x="224.89" y="333.88" style="fill:#242D3C;" width="1.86" height="51.49"/>
	<rect x="259.1" y="333.88" style="fill:#242D3C;" width="2.52" height="51.49"/>
	<rect x="228.58" y="333.88" style="fill:#242D3C;" width="2.524" height="51.49"/>
	<rect x="246.02" y="333.88" style="fill:#242D3C;" width="2.52" height="51.49"/>
	<rect x="241.66" y="333.88" style="fill:#242D3C;" width="2.52" height="51.49"/>
	<rect x="254.74" y="333.88" style="fill:#242D3C;" width="2.53" height="51.49"/>
	<rect x="285.26" y="333.88" style="fill:#242D3C;" width="1.85" height="51.49"/>
	<rect x="237.3" y="333.88" style="fill:#242D3C;" width="2.53" height="51.49"/>
	<rect x="280.9" y="333.88" style="fill:#242D3C;" width="2.53" height="51.49"/>
	<rect x="232.93" y="333.88" style="fill:#242D3C;" width="2.534" height="51.49"/>
	<path style="fill:#242D3C;" d="M106.711,232.141l-4.895-0.773c0.852-5.361,1.995-10.729,3.399-15.961l4.783,1.285
		C108.64,221.755,107.53,226.955,106.711,232.141z M405.253,231.9c-0.836-5.196-1.952-10.395-3.316-15.449l4.78-1.295
		c1.414,5.219,2.563,10.587,3.425,15.955L405.253,231.9z M114.893,201.665l-4.621-1.78c1.952-5.061,4.195-10.075,6.666-14.904
		l4.407,2.259C118.956,191.914,116.782,196.767,114.893,201.665z M397.011,201.437c-1.893-4.889-4.07-9.738-6.464-14.405
		l4.406-2.266c2.474,4.823,4.724,9.83,6.676,14.881L397.011,201.437z M129.272,173.568l-4.149-2.709
		c2.956-4.535,6.19-8.972,9.612-13.186l3.845,3.122C135.267,164.874,132.136,169.171,129.272,173.568z M382.606,173.38
		c-2.871-4.387-6.005-8.681-9.322-12.754l3.838-3.128c3.425,4.208,6.669,8.638,9.632,13.173L382.606,173.38z M149.167,149.058
		l-3.505-3.508c3.842-3.838,7.921-7.508,12.129-10.917l3.115,3.852C156.837,141.784,152.883,145.342,149.167,149.058z
		 M362.684,148.909c-3.729-3.713-7.69-7.264-11.763-10.557l3.108-3.855c4.208,3.399,8.298,7.069,12.149,10.904L362.684,148.909z
		 M173.687,129.192l-2.702-4.155c4.552-2.96,9.302-5.708,14.121-8.169l2.253,4.413C182.695,123.666,178.093,126.325,173.687,129.192
		z M338.128,129.074c-4.413-2.857-9.018-5.516-13.695-7.895l2.246-4.416c4.829,2.454,9.586,5.199,14.144,8.152L338.128,129.074z
		 M201.781,114.853l-1.777-4.625c5.061-1.946,10.283-3.643,15.519-5.041l1.285,4.786
		C211.737,111.325,206.68,112.967,201.781,114.853z M309.995,114.767c-4.905-1.876-9.969-3.511-15.04-4.862l1.272-4.786
		c5.246,1.394,10.471,3.082,15.535,5.021L309.995,114.767z M232.26,106.694l-0.766-4.892c5.341-0.842,10.802-1.414,16.225-1.698
		l0.258,4.948C242.721,105.327,237.433,105.878,232.26,106.694z M279.496,106.655c-5.179-0.806-10.471-1.351-15.72-1.619
		l0.251-4.948c5.421,0.274,10.881,0.839,16.229,1.671L279.496,106.655z"/>
	<path style="fill:#242D3C;" d="M91.252,267.112v-22.224h22.221v22.224H91.252z M96.206,262.157h12.311v-12.314H96.206
		C96.206,249.843,96.206,262.157,96.206,262.157z"/>
	<path style="fill:#242D3C;" d="M398.528,267.112v-22.224h22.221v22.224H398.528z M403.482,262.157h12.311v-12.314h-12.311V262.157z
		"/>
	<rect x="244.48" y="90.84" style="fill:#242D3C;" width="23.05" height="23.05"/>
	<rect x="102.36" y="100.71" style="fill:#242D3C;" width="307.28" height="3.303"/>
	<circle style="fill:#242D3C;" cx="102.36" cy="102.36" r="9.599"/>
	<circle style="fill:#242D3C;" cx="409.64" cy="102.36" r="9.606"/>
</g>
<g>
</g>
<g>
</g>
<g>
</g>
<g>
</g>
<g>
</g>
<g>
</g>
<g>
</g>
<g>
</g>
<g>
</g>
<g>
</g>
<g>
</g>
<g>
</g>
<g>
</g>
<g>
</g>
<g>
</g>
</svg>
